<?xml version="1.0" encoding="UTF-8" standalone="no"?>
<svg
   xmlns:dc="http://purl.org/dc/elements/1.1/"
   xmlns:cc="http://creativecommons.org/ns#"
   xmlns:rdf="http://www.w3.org/1999/02/22-rdf-syntax-ns#"
   xmlns:svg="http://www.w3.org/2000/svg"
   xmlns="http://www.w3.org/2000/svg"
   xmlns:sodipodi="http://sodipodi.sourceforge.net/DTD/sodipodi-0.dtd"
   xmlns:inkscape="http://www.inkscape.org/namespaces/inkscape"
   width="16"
   height="16"
   viewBox="0 0 217 4816"
   version="1.1"
   xml:space="preserve"
   style="clip-rule:evenodd;fill-rule:evenodd;stroke-linejoin:round;stroke-miterlimit:2"
   id="svg827"
   sodipodi:docname="file-usage.svg"
   inkscape:version="0.92.4 (5da689c313, 2019-01-14)"><metadata
     id="metadata833"><rdf:RDF><cc:Work
         rdf:about=""><dc:format>image/svg+xml</dc:format><dc:type
           rdf:resource="http://purl.org/dc/dcmitype/StillImage" /><dc:title></dc:title></cc:Work></rdf:RDF></metadata><defs
     id="defs831" /><sodipodi:namedview
     pagecolor="#58ffff"
     bordercolor="#666666"
     borderopacity="1"
     objecttolerance="10"
     gridtolerance="10"
     guidetolerance="10"
     inkscape:pageopacity="0"
     inkscape:pageshadow="2"
     inkscape:window-width="3840"
     inkscape:window-height="2019"
     id="namedview829"
     showgrid="false"
     width="16"
     units="px"
     inkscape:zoom="66.190833"
     inkscape:cx="8.0670704"
     inkscape:cy="9.9410514"
     inkscape:window-x="-14"
     inkscape:window-y="-14"
     inkscape:window-maximized="1"
     inkscape:current-layer="svg827" /><path
     d="M 1652.6887,4815.743 H -991.20978 c -88.82972,0 -160.93912,-75.2175 -160.93912,-167.8567 V 659.65184 c 0,-92.63918 72.1094,-167.8567 160.93912,-167.8567 h 1871.6716 l -26.0927,0.35066 -0.2709,618.6837 c 0,189.5182 147.53408,343.3802 329.24198,343.3802 h 630.2875 v 3193.6128 c 0,92.6233 -72.0934,167.8249 -160.939,167.8567 z m -2904.9044,-186.3144 -142.8639,-134.1292 V 404.25653 c 0,-92.63917 54.2414,-149.98875 143.0711,-149.98875 H 619.87022 l 143.119,142.87983 H -1091.2767 c -127.3231,0 -160.9391,40.53362 -160.9391,167.84076 z m -392.8877,-368.5484 V 172.10072 c 0,-92.639175 54.2574,-149.988754 143.0711,-149.988754 H 387.50722 L 532.76202,164.97586 H -1341.3005 c -131.1007,0 -160.939,36.75601 -160.939,167.8567 0,4064.04174 0,4061.85804 0,4061.85804 z M 693.79672,3329.5951 c -349.1821,230.3388 -824.1731,174.2484 -1108.6735,-148.4267 -311.31037,-353.0713 -277.4075,-892.457 75.6638,-1203.7514 353.0713,-311.3103 892.457,-277.4075 1203.7673,75.6638 284.50048,322.6592 280.67508,800.9496 8.416,1118.524 l 444.27588,503.873 c 43.594,49.4596 38.8441,124.9959 -10.5996,168.5899 -49.4437,43.594 -124.98,38.8441 -168.5899,-10.5996 z M 224.83082,1987.8413 c 347.3172,0 629.2992,281.9661 629.2992,629.2833 0,347.3172 -281.982,629.2834 -629.2992,629.2834 -347.3172,0 -629.2833,-281.9662 -629.2833,-629.2834 0,-347.3172 281.9661,-629.2833 629.2833,-629.2833 z"
     style="fill:#ffffff;stroke-width:15.93929386"
     id="path825"
     inkscape:connector-curvature="0" /><path
     style="fill:#cccccf;fill-opacity:0;stroke:#ffffff;stroke-width:0.07553916;stroke-miterlimit:4;stroke-dasharray:none;stroke-opacity:1"
     d="M 4.2024869,15.973688 C 4.0603972,15.93031 3.9111641,15.78984 3.8522964,15.644062 l -0.035059,-0.08682 -0.00397,-6.6625543 c -0.00248,-4.1618439 0.00143,-6.7017172 0.01042,-6.766895 0.028475,-0.206397 0.1375089,-0.3588665 0.3183728,-0.4452006 l 0.083093,-0.039664 3.1235443,-0.00395 3.1235435,-0.00395 v 1.0790574 c 0,1.1715043 0.0018,1.2012074 0.08442,1.4091238 0.108433,0.2728174 0.30133,0.4811831 0.559975,0.6048798 0.221671,0.1060137 0.150167,0.1006106 1.406497,0.1062782 l 1.136864,0.00513 V 10.17789 c 0,5.300484 -2.15e-4,5.339082 -0.03029,5.434416 -0.03688,0.11692 -0.111333,0.221184 -0.202962,0.284227 -0.143821,0.09895 0.24921,0.09141 -4.6900284,0.08998 -2.4730517,-7.14e-4 -4.5134539,-0.0065 -4.5342272,-0.01283 z m 7.6842241,-3.137714 c 0.203268,-0.09628 0.288953,-0.345802 0.185808,-0.54109 -0.02014,-0.03814 -0.349927,-0.424466 -0.732856,-0.858512 -0.382929,-0.434046 -0.718424,-0.814628 -0.745544,-0.845737 l -0.04931,-0.05656 0.06009,-0.07185 C 10.856954,10.160829 11.077336,9.6874214 11.16602,9.2568663 11.325843,8.4809314 11.144691,7.6567091 10.673948,7.0179947 10.287949,6.4942628 9.7128382,6.1031958 9.1048438,5.9510259 8.741456,5.8600765 8.3155707,5.8357503 7.9808176,5.8868225 6.6951871,6.0829667 5.7220869,7.0864155 5.5694682,8.3733759 c -0.06601,0.5566314 0.029441,1.0833385 0.2902319,1.6015228 0.1379921,0.2741863 0.2664798,0.4545333 0.4872882,0.6839643 0.3871371,0.402255 0.8325994,0.659556 1.3680696,0.790204 0.5247695,0.128037 1.0625322,0.104683 1.5809808,-0.06866 0.1697467,-0.05675 0.4414847,-0.182551 0.5711481,-0.264404 0.033312,-0.02103 0.06642,-0.03824 0.073571,-0.03824 0.00715,0 0.3509042,0.383526 0.7638932,0.85228 0.41299,0.468753 0.769152,0.864245 0.791473,0.87887 0.106593,0.06984 0.275545,0.08155 0.390587,0.02705 z"
     id="path867"
     inkscape:connector-curvature="0"
     transform="matrix(301,0,0,301,-2299.5,0)" /><path
     style="fill:#dddddf;fill-opacity:0;stroke:#ffffff;stroke-width:0.07553916;stroke-miterlimit:4;stroke-dasharray:none;stroke-opacity:1"
     d="M 8.0474303,10.752116 C 7.4363684,10.648867 6.8929111,10.273183 6.5843722,9.7407273 6.3814974,9.3906196 6.2888715,9.0110302 6.306511,8.602027 6.323233,8.2142973 6.4341799,7.8713442 6.6473329,7.5484972 6.9558886,7.0811505 7.4194938,6.7691298 7.9841525,6.6487759 c 0.2185955,-0.046592 0.5878125,-0.046592 0.806408,0 0.413553,0.088147 0.7412655,0.2610583 1.0398772,0.548673 0.3158493,0.3042174 0.5204453,0.6790432 0.6067103,1.1115106 0.03738,0.1873826 0.03685,0.5982993 -9.88e-4,0.7745771 -0.06155,0.2867214 -0.158309,0.5265404 -0.300375,0.744489 -0.3245989,0.4979784 -0.8352081,0.8299774 -1.4231595,0.9253404 -0.1671269,0.02711 -0.5010864,0.02648 -0.6651951,-0.0013 z"
     id="path879"
     inkscape:connector-curvature="0"
     transform="matrix(301,0,0,301,-2299.5,0)" /><path
     style="fill:#bbbbbb;fill-opacity:1;stroke:#ffffff;stroke-width:0.07553916;stroke-miterlimit:4;stroke-dasharray:none;stroke-opacity:1"
     d="m 8.1456312,10.798921 c -0.012464,-0.003 -0.073651,-0.01364 -0.1359705,-0.02362 C 7.7813079,10.738748 7.5118193,10.636716 7.2933555,10.504101 6.7892935,10.19812 6.4447019,9.7136053 6.3152698,9.1288601 6.2693959,8.9216117 6.2654913,8.5028201 6.307475,8.2928037 6.4924565,7.3674641 7.2689912,6.6690075 8.2013765,6.5893278 c 0.3971071,-0.033936 0.8040332,0.043705 1.1512643,0.2196606 0.3617641,0.1833198 0.7411692,0.5686042 0.9308652,0.9452903 0.06992,0.1388333 0.152634,0.3825005 0.183319,0.5400093 0.03518,0.1805829 0.035,0.6427372 -3.12e-4,0.806094 -0.184077,0.8515091 -0.8056205,1.480357 -1.6485828,1.667958 -0.09669,0.02152 -0.612681,0.04499 -0.6722986,0.03058 z"
     id="path889"
     inkscape:connector-curvature="0"
     transform="matrix(301,0,0,301,-2299.5,0)" /><path
     style="fill:#bbbbbb;fill-opacity:1;stroke:#ffffff;stroke-width:0.07553916;stroke-miterlimit:4;stroke-dasharray:none;stroke-opacity:1"
     d="M 4.3455941,16.003959 C 4.1544708,15.995618 4.1464849,15.993899 4.0696409,15.944544 3.9698892,15.880475 3.882445,15.781689 3.8287646,15.672425 l -0.041743,-0.08497 V 8.8418113 2.0961641 l 0.036044,-0.098201 C 3.8872195,1.8231776 3.9598806,1.7423391 4.136197,1.6495913 l 0.084466,-0.044432 h 3.1395117 3.1395113 l 0.0069,1.1217565 c 0.0078,1.2684399 0.0045,1.2295572 0.126443,1.4767906 0.05963,0.1208706 0.09247,0.1651145 0.208065,0.2803083 0.115306,0.114908 0.160212,0.1480482 0.280782,0.2072167 0.09181,0.045055 0.178907,0.075868 0.241725,0.085517 0.05401,0.0083 0.599593,0.019812 1.212404,0.025591 l 1.114203,0.010507 -9.57e-4,5.2437806 c -5.25e-4,2.88408 -0.006,5.315166 -0.01214,5.402414 -0.0087,0.123222 -0.02013,0.17809 -0.05122,0.245803 -0.04531,0.09865 -0.1706,0.230035 -0.251683,0.263914 -0.03229,0.01349 -0.14427,0.02716 -0.287677,0.03511 -0.25461,0.01411 -8.4176635,0.0142 -8.7409269,9.1e-5 z m 7.5284969,-3.202572 c 0.06731,-0.03469 0.140975,-0.110339 0.177839,-0.182618 0.03524,-0.06909 0.03598,-0.216934 0.0014,-0.283053 -0.03458,-0.06616 -0.283123,-0.358039 -0.959281,-1.126565 -0.312923,-0.35567 -0.571174,-0.656635 -0.573892,-0.668812 -0.0027,-0.01218 0.02185,-0.0543 0.05458,-0.09361 0.284226,-0.34128 0.512342,-0.8694073 0.584013,-1.3520909 C 11.18859,8.8936447 11.1889,8.5069878 11.159376,8.2992658 11.078007,7.7266259 10.817095,7.1890026 10.41936,6.7743831 10.158189,6.5021252 9.9293752,6.3339582 9.603537,6.1747941 9.1816027,5.9686891 8.7472859,5.8810194 8.2443447,5.9004319 7.3890376,5.9334451 6.5551641,6.4012215 6.0735959,7.1181526 5.5763846,7.8583724 5.4518364,8.7435291 5.7284723,9.5709236 5.9661659,10.281844 6.4750664,10.870031 7.136418,11.198225 c 0.6739543,0.334448 1.4117194,0.388479 2.1268098,0.155758 0.095346,-0.03103 0.2851052,-0.11235 0.4216862,-0.180711 l 0.2483292,-0.124294 0.044438,0.03164 c 0.024441,0.0174 0.3168868,0.338314 0.6498808,0.713134 0.783714,0.882153 0.885047,0.991649 0.939793,1.015505 0.0707,0.03081 0.240131,0.02646 0.306736,-0.0079 z"
     id="path893"
     inkscape:connector-curvature="0"
     transform="matrix(301,0,0,301,-2299.5,0)" /><path
     style="fill:#bbbbbb;fill-opacity:1;stroke:#ffffff;stroke-width:0.07553916;stroke-miterlimit:4;stroke-dasharray:none;stroke-opacity:1"
     d="m 3.2403946,15.151711 -0.2293624,-0.213889 0.00274,-6.8740641 0.00274,-6.8740637 0.035704,-0.078969 C 3.0919046,1.0229642 3.1881393,0.92567685 3.2761125,0.88438942 3.3308935,0.85867968 3.493297,0.85712369 6.5136337,0.85337075 L 9.6934807,0.84941975 9.9244113,1.0799883 10.155342,1.310557 6.9711817,1.318107 C 3.9551258,1.325267 3.7834323,1.327087 3.7190363,1.352747 3.6301213,1.388172 3.5455467,1.4721976 3.5118662,1.5585717 3.4861172,1.6246047 3.4845142,1.9464562 3.4773112,8.4967073 l -0.00755,6.8688897 z"
     id="path895"
     inkscape:connector-curvature="0"
     transform="matrix(301,0,0,301,-2299.5,0)" /><path
     style="fill:#bbbbbb;fill-opacity:1;stroke:#ffffff;stroke-width:0.07553916;stroke-miterlimit:4;stroke-dasharray:none;stroke-opacity:1"
     d="m 2.4083502,14.369279 -0.2304761,-0.21439 0.00386,-6.8678473 0.00386,-6.86784695 0.036044,-0.0797608 C 2.2687661,0.2351413 2.382608,0.13230983 2.4844039,0.10207967 2.5518432,0.08205235 2.9491626,0.07926853 5.7401124,0.07926853 H 8.9190073 L 9.1608387,0.30966297 9.40267,0.54005741 6.1718266,0.54775293 C 3.5564925,0.55398239 2.9298982,0.55923502 2.8827984,0.57532429 2.8084531,0.60072057 2.7053409,0.7038952 2.6764648,0.78178273 2.6568273,0.83475074 2.6531197,1.6907539 2.6464433,7.7129413 l -0.00762,6.8707277 z"
     id="path897"
     inkscape:connector-curvature="0"
     transform="matrix(301,0,0,301,-2299.5,0)" /></svg>